<?xml version="1.0" encoding="UTF-8"?>
<svg id="Layer_1" data-name="Layer 1" xmlns="http://www.w3.org/2000/svg" version="1.1" xmlns:xlink="http://www.w3.org/1999/xlink" viewBox="0 0 1080 515">
  <defs>
    <style>
      .cls-1 {
        fill: url(#linear-gradient);
      }

      .cls-1, .cls-2, .cls-3 {
        stroke-width: 0px;
      }

      .cls-2 {
        fill: url(#linear-gradient-2);
      }

      .cls-3 {
        fill: url(#radial-gradient);
      }
    </style>
    <linearGradient id="linear-gradient" x1="513.91" y1="257.5" x2="748.22" y2="257.5" gradientUnits="userSpaceOnUse">
      <stop offset="0" stop-color="#55a630"/>
      <stop offset="0" stop-color="#4ba135"/>
      <stop offset="0" stop-color="#309544"/>
      <stop offset="0" stop-color="#1a8b50"/>
      <stop offset="0" stop-color="#0b8458"/>
      <stop offset="0" stop-color="#02805d"/>
      <stop offset="0" stop-color="#007f5f"/>
      <stop offset="0" stop-color="#007f5e"/>
      <stop offset=".34" stop-color="#379740"/>
      <stop offset=".63" stop-color="#5ea92a"/>
      <stop offset=".86" stop-color="#77b41c"/>
      <stop offset="1" stop-color="#80b918"/>
    </linearGradient>
    <linearGradient id="linear-gradient-2" x1="770.99" y1="257.5" x2="982.52" y2="257.5" xlink:href="#linear-gradient"/>
    <radialGradient id="radial-gradient" cx="301.56" cy="257.5" fx="301.56" fy="257.5" r="211.18" gradientUnits="userSpaceOnUse">
      <stop offset="0" stop-color="#55a630"/>
      <stop offset="0" stop-color="#4ba135"/>
      <stop offset="0" stop-color="#309544"/>
      <stop offset="0" stop-color="#1a8b50"/>
      <stop offset="0" stop-color="#0b8458"/>
      <stop offset="0" stop-color="#02805d"/>
      <stop offset="0" stop-color="#007f5f"/>
      <stop offset="0" stop-color="#007f5e"/>
      <stop offset=".34" stop-color="#379740"/>
      <stop offset=".63" stop-color="#5ea92a"/>
      <stop offset=".86" stop-color="#77b41c"/>
      <stop offset="1" stop-color="#80b918"/>
    </radialGradient>
  </defs>
  <path class="cls-1" d="M650.58,353.5c14.75,0,28.91-2.55,42.47-7.65,13.56-5.1,26.52-13.4,38.89-24.9l16.27,19.52c-12.37,11.51-27.34,20.62-44.91,27.34-17.58,6.72-36.24,10.09-55.97,10.09s-38.78-2.61-55.16-7.81c-16.39-5.21-30.38-12.9-41.98-23.11-11.61-10.19-20.56-22.78-26.85-37.75-6.29-14.97-9.43-32.22-9.43-51.74s3.09-36.78,9.27-51.74c6.18-14.97,14.97-27.55,26.36-37.75,11.39-10.19,25.11-17.9,41.17-23.11,16.05-5.2,33.84-7.81,53.37-7.81s38.4,3.37,55.97,10.09c17.57,6.72,32.54,15.84,44.91,27.34l-16.28,19.52c-12.37-11.5-25.34-19.79-38.89-24.9-13.56-5.09-27.72-7.65-42.47-7.65-11.72,0-22.68,1.9-32.87,5.7-10.2,3.8-18.99,9.6-26.36,17.41-7.38,7.81-13.18,17.74-17.41,29.78-4.23,12.04-6.35,26.42-6.35,43.12s2.11,31.08,6.35,43.12c4.23,12.04,10.2,21.96,17.9,29.77,7.7,7.81,16.81,13.62,27.34,17.41,10.52,3.8,22.07,5.69,34.65,5.69"/>
  <path class="cls-2" d="M770.99,234.72c0-31.02,9.11-55.05,27.33-72.08,18.23-17.03,44.91-25.55,80.06-25.55,16.27,0,32.43,2.5,48.49,7.49,16.05,4.99,30.26,12.8,42.63,23.43l-14.65,19.52c-6.07-5.21-12.42-9.49-19.04-12.85-6.62-3.36-13.12-6.02-19.52-7.98-6.4-1.95-12.59-3.3-18.56-4.06-5.96-.76-11.33-1.14-16.11-1.14-18.66,0-33.35,5.91-44.1,17.73-10.73,11.83-16.11,30.32-16.11,55.48,4.56-3.03,9.98-5.74,16.28-8.13,5.21-1.95,11.66-3.79,19.36-5.53,7.7-1.73,16.43-2.61,26.19-2.61,15.83,0,29.94,1.95,42.3,5.86,12.37,3.9,22.78,9.33,31.24,16.27,8.46,6.95,14.86,15.35,19.21,25.22,4.33,9.88,6.5,20.67,6.5,32.38s-2.23,22.51-6.67,32.38c-4.45,9.88-11.12,18.28-20.01,25.22-8.89,6.95-19.9,12.37-33.03,16.27-13.12,3.9-28.47,5.86-46.04,5.86-35.15,0-61.56-7.75-79.25-23.27-17.68-15.51-26.52-37.58-26.52-66.23v-53.69ZM880.01,241.23c-9.77,0-18.28,1.14-25.55,3.42-7.28,2.28-13.4,4.72-18.39,7.32-5.64,3.04-10.53,6.51-14.65,10.41v29.29c0,20.4,5.15,36.07,15.46,47.02,10.3,10.95,23.59,16.44,39.87,16.44,8.02,0,15.45-1.36,22.29-4.07,6.84-2.71,12.69-6.56,17.57-11.55,4.88-4.99,8.67-11.01,11.39-18.06,2.71-7.05,4.06-14.81,4.06-23.27s-1.36-16.22-4.06-23.27c-2.72-7.05-6.4-13.07-11.06-18.06-4.67-4.99-10.15-8.84-16.44-11.55-6.3-2.71-13.13-4.07-20.5-4.07"/>
  <path class="cls-3" d="M176.13,271.89c6.3-8.58,6.3-20.27,0-28.85l-70.65-96.48,110.67,95.71c9.25,8,9.25,22.41,0,30.44l-110.6,95.64,70.58-96.45ZM226.32,156.1l-118.85-12.93,138.16,47.98c11.61,4.01,24.07-3.17,26.39-15.22l27.57-143.69-48.28,109.42c-4.27,9.77-14.4,15.59-24.98,14.45M245.63,323.82l-138.31,47.98,119-12.94c10.58-1.18,20.71,4.68,24.98,14.41l48.28,109.49-27.57-143.73c-2.33-12.05-14.78-19.24-26.39-15.22M357.41,191.15l138.16-47.98-118.85,12.93c-10.57,1.15-20.71-4.68-24.99-14.45l-48.24-109.42,27.53,143.69c2.33,12.05,14.78,19.23,26.39,15.22M331.02,339.04l-27.53,143.73,48.24-109.49c4.28-9.73,14.41-15.59,24.99-14.41l119,12.94-138.31-47.98c-11.61-4.02-24.06,3.17-26.39,15.22M426.91,243.04l70.72-96.55-110.71,95.78c-9.29,8-9.29,22.41,0,30.44l110.63,95.71-70.65-96.52c-6.26-8.58-6.26-20.27,0-28.85"/>
</svg>