<svg version="1.1" id="Layer_1" xmlns="http://www.w3.org/2000/svg" xmlns:xlink="http://www.w3.org/1999/xlink" x="0px" y="0px"
	 width="100%" viewBox="0 0 200 200" enable-background="new 0 0 200 200" xml:space="preserve">
<path fill="#007AB1" opacity="1.000000" stroke="none" 
	d="
M116.000000,201.000000 
	C77.357201,201.000000 39.214397,201.000000 1.035799,201.000000 
	C1.035799,134.398911 1.035799,67.797783 1.035799,1.098330 
	C67.559296,1.098330 134.118790,1.098330 200.839142,1.098330 
	C200.839142,67.666351 200.839142,134.333145 200.839142,201.000000 
	C172.798065,201.000000 144.649033,201.000000 116.000000,201.000000 
M91.931282,100.666069 
	C93.236023,103.538315 94.343239,106.525673 95.923531,109.237328 
	C96.796761,110.735718 98.480949,112.762444 99.766609,112.739037 
	C101.061340,112.715477 102.785439,110.664917 103.499222,109.122131 
	C105.676895,104.415359 107.458504,99.525345 109.394249,94.706642 
	C109.903496,94.794708 110.412743,94.882774 110.921989,94.970840 
	C110.921989,101.014488 110.995209,107.059341 110.896652,113.101379 
	C110.829163,117.239372 112.669907,117.894096 115.872414,116.587814 
	C115.872414,107.278694 115.989365,98.298416 115.758705,89.327065 
	C115.719696,87.810112 114.520454,85.531456 113.268234,85.004509 
	C110.777763,83.956505 109.148430,85.496628 108.210258,88.142799 
	C105.943817,94.535393 103.393173,100.827225 100.560875,108.189690 
	C97.486717,100.999352 94.612144,94.878731 92.263496,88.562553 
	C90.789040,84.597336 88.531113,84.097343 85.128479,85.425713 
	C85.128479,94.951736 85.051964,104.267632 85.217499,113.579239 
	C85.240257,114.859398 86.465080,116.118179 87.133377,117.386864 
	C87.543945,117.129433 87.954506,116.872002 88.365074,116.614571 
	C88.365074,109.005104 88.365074,101.395645 88.365074,92.400978 
	C89.846138,95.776108 90.761429,97.861931 91.931282,100.666069 
M128.077011,113.731979 
	C127.072556,111.772766 126.068100,109.813553 125.067520,107.861893 
	C121.184601,109.588013 120.471535,113.161644 124.118324,114.976456 
	C127.326805,116.573128 131.364548,117.007690 135.039978,117.023132 
	C138.885971,117.039291 142.084824,115.081299 143.151474,110.892937 
	C144.186951,106.826920 142.632889,103.648918 139.420898,101.317993 
	C136.599121,99.270248 133.272018,97.840790 130.720276,95.528831 
	C129.235916,94.183968 128.423630,91.691162 128.163635,89.608208 
	C128.064651,88.815117 130.487335,86.808487 131.531693,86.957741 
	C133.735214,87.272667 135.859070,88.516136 137.873154,89.635094 
	C138.942841,90.229370 139.684906,91.398247 140.681915,92.169357 
	C140.755310,92.226128 142.240112,91.015221 142.140488,90.640427 
	C141.744171,89.149559 141.259705,86.780251 140.300476,86.505066 
	C137.042221,85.570381 133.440292,84.624229 130.217300,85.163338 
	C127.692680,85.585617 124.061523,87.861519 123.581680,89.930664 
	C122.959068,92.615456 124.286270,96.422386 126.049004,98.801880 
	C127.810219,101.179329 131.113998,102.440170 133.796066,104.102524 
	C136.976334,106.073647 139.877487,108.489372 137.854309,112.514565 
	C135.828934,116.544106 132.156403,115.618195 128.077011,113.731979 
M62.465763,117.178627 
	C65.924667,116.925095 64.569893,114.589699 64.369896,112.762733 
	C63.563911,105.399902 63.582001,105.486702 70.610466,103.844177 
	C72.498535,103.402939 74.451172,102.557556 75.979935,101.384102 
	C80.997498,97.532684 80.419617,88.663895 74.869270,86.235435 
	C69.748337,83.994858 64.339821,84.028328 59.128132,85.662598 
	C59.128132,94.933006 59.004745,103.749962 59.243595,112.557098 
	C59.285835,114.114655 60.838924,115.631248 62.465763,117.178627 
z"/>
<path fill="#F0F2EA" opacity="1.000000" stroke="none" 
	d="
M91.804001,100.306915 
	C90.761429,97.861931 89.846138,95.776108 88.365074,92.400978 
	C88.365074,101.395645 88.365074,109.005104 88.365074,116.614571 
	C87.954506,116.872002 87.543945,117.129433 87.133377,117.386864 
	C86.465080,116.118179 85.240257,114.859398 85.217499,113.579239 
	C85.051964,104.267632 85.128479,94.951736 85.128479,85.425713 
	C88.531113,84.097343 90.789040,84.597336 92.263496,88.562553 
	C94.612144,94.878731 97.486717,100.999352 100.560875,108.189690 
	C103.393173,100.827225 105.943817,94.535393 108.210258,88.142799 
	C109.148430,85.496628 110.777763,83.956505 113.268234,85.004509 
	C114.520454,85.531456 115.719696,87.810112 115.758705,89.327065 
	C115.989365,98.298416 115.872414,107.278694 115.872414,116.587814 
	C112.669907,117.894096 110.829163,117.239372 110.896652,113.101379 
	C110.995209,107.059341 110.921989,101.014488 110.921989,94.970840 
	C110.412743,94.882774 109.903496,94.794708 109.394249,94.706642 
	C107.458504,99.525345 105.676895,104.415359 103.499222,109.122131 
	C102.785439,110.664917 101.061340,112.715477 99.766609,112.739037 
	C98.480949,112.762444 96.796761,110.735718 95.923531,109.237328 
	C94.343239,106.525673 93.236023,103.538315 91.804001,100.306915 
z"/>
<path fill="#EDF0EA" opacity="1.000000" stroke="none" 
	d="
M128.406281,113.960266 
	C132.156403,115.618195 135.828934,116.544106 137.854309,112.514565 
	C139.877487,108.489372 136.976334,106.073647 133.796066,104.102524 
	C131.113998,102.440170 127.810219,101.179329 126.049004,98.801880 
	C124.286270,96.422386 122.959068,92.615456 123.581680,89.930664 
	C124.061523,87.861519 127.692680,85.585617 130.217300,85.163338 
	C133.440292,84.624229 137.042221,85.570381 140.300476,86.505066 
	C141.259705,86.780251 141.744171,89.149559 142.140488,90.640427 
	C142.240112,91.015221 140.755310,92.226128 140.681915,92.169357 
	C139.684906,91.398247 138.942841,90.229370 137.873154,89.635094 
	C135.859070,88.516136 133.735214,87.272667 131.531693,86.957741 
	C130.487335,86.808487 128.064651,88.815117 128.163635,89.608208 
	C128.423630,91.691162 129.235916,94.183968 130.720276,95.528831 
	C133.272018,97.840790 136.599121,99.270248 139.420898,101.317993 
	C142.632889,103.648918 144.186951,106.826920 143.151474,110.892937 
	C142.084824,115.081299 138.885971,117.039291 135.039978,117.023132 
	C131.364548,117.007690 127.326805,116.573128 124.118324,114.976456 
	C120.471535,113.161644 121.184601,109.588013 125.067520,107.861893 
	C126.068100,109.813553 127.072556,111.772766 128.406281,113.960266 
z"/>
<path fill="#F0F2EA" opacity="1.000000" stroke="none" 
	d="
M62.080040,117.172691 
	C60.838924,115.631248 59.285835,114.114655 59.243595,112.557098 
	C59.004745,103.749962 59.128132,94.933006 59.128132,85.662598 
	C64.339821,84.028328 69.748337,83.994858 74.869270,86.235435 
	C80.419617,88.663895 80.997498,97.532684 75.979935,101.384102 
	C74.451172,102.557556 72.498535,103.402939 70.610466,103.844177 
	C63.582001,105.486702 63.563911,105.399902 64.369896,112.762733 
	C64.569893,114.589699 65.924667,116.925095 62.080040,117.172691 
M72.624481,99.006424 
	C75.467606,90.432251 72.642059,86.221939 64.602448,87.110237 
	C64.602448,92.116592 64.602448,97.112114 64.602448,103.375999 
	C67.687111,101.856682 69.920250,100.756775 72.624481,99.006424 
z"/>
<path fill="#1183B5" opacity="1.000000" stroke="none" 
	d="
M72.388931,99.331650 
	C69.920250,100.756775 67.687111,101.856682 64.602448,103.375999 
	C64.602448,97.112114 64.602448,92.116592 64.602448,87.110237 
	C72.642059,86.221939 75.467606,90.432251 72.388931,99.331650 
z"/>
</svg>