<svg xmlns="http://www.w3.org/2000/svg" width="202.501" height="34.215" viewBox="0 0 202.501 34.215">
  <g id="Group_5632" data-name="Group 5632" transform="translate(-15 40)">
    <path id="Path_4745" data-name="Path 4745" d="M8.35,31.326A12.989,12.989,0,0,1,.38,28.888l2-3.094a10.6,10.6,0,0,0,5.688,1.844,5.811,5.811,0,0,0,2.8-.563,1.817,1.817,0,0,0,1.016-1.688,1.9,1.9,0,0,0-.328-1.141,3.206,3.206,0,0,0-1.156-.875q-.828-.422-2.485-1.078l-.719-.281a22.857,22.857,0,0,1-3.219-1.5,5.677,5.677,0,0,1-1.938-1.844,5.19,5.19,0,0,1-.719-2.844,4.679,4.679,0,0,1,1.094-3.172,6.39,6.39,0,0,1,2.813-1.86A11.121,11.121,0,0,1,8.881,10.2a12.131,12.131,0,0,1,3.61.578,13.713,13.713,0,0,1,3.547,1.7l-2.019,3.063a14.62,14.62,0,0,0-2.64-1.313,7.4,7.4,0,0,0-2.485-.406,4.129,4.129,0,0,0-2.252.5,1.537,1.537,0,0,0-.761,1.344,1.568,1.568,0,0,0,.311.953,3.25,3.25,0,0,0,1.119.844,21.148,21.148,0,0,0,2.33.984l.684.25a27.824,27.824,0,0,1,3.216,1.406,5.829,5.829,0,0,1,2.066,1.875,5.455,5.455,0,0,1,.839,3.157,5.471,5.471,0,0,1-1.063,3.422,6.349,6.349,0,0,1-2.891,2.078A11.7,11.7,0,0,1,8.35,31.326Zm23.19-14.814V30.888h-3.6L27.6,29.763a9.014,9.014,0,0,1-4.955,1.563,3.994,3.994,0,0,1-4.39-4.344V16.918l4.219-.406v9.22a3.039,3.039,0,0,0,.412,1.8,1.756,1.756,0,0,0,1.488.547,6.684,6.684,0,0,0,2.945-.969V16.918Zm7.813,14.814a12.188,12.188,0,0,1-3.578-.484,10.4,10.4,0,0,1-2.953-1.453l1.788-2.719a7.853,7.853,0,0,0,4.643,1.563,2.882,2.882,0,0,0,1.521-.313.96.96,0,0,0,.486-.844,1.028,1.028,0,0,0-.188-.609,1.929,1.929,0,0,0-.769-.531,12.147,12.147,0,0,0-1.71-.578l-.91-.25a7.281,7.281,0,0,1-3.248-1.625,3.7,3.7,0,0,1-.988-2.719,3.86,3.86,0,0,1,.719-2.313A4.609,4.609,0,0,1,36.2,16.9a7.744,7.744,0,0,1,3-.547,11.159,11.159,0,0,1,5.782,1.531l-1.646,2.719a12.716,12.716,0,0,0-2.185-.906,6.97,6.97,0,0,0-1.9-.25,2.052,2.052,0,0,0-1.187.281.85.85,0,0,0-.4.719.814.814,0,0,0,.158.516,1.4,1.4,0,0,0,.585.375,13.335,13.335,0,0,0,1.344.422l1.044.281a7.67,7.67,0,0,1,3.559,1.75,3.859,3.859,0,0,1,1.123,2.844,4.407,4.407,0,0,1-.672,2.406,4.47,4.47,0,0,1-2.063,1.672A8.434,8.434,0,0,1,39.352,31.326ZM56.2,30.294a8.25,8.25,0,0,1-4.11,1.031,5.023,5.023,0,0,1-2.133-.453,3.706,3.706,0,0,1-1.6-1.453,4.713,4.713,0,0,1-.623-2.531V20.168H45.166V16.824h2.563V13.668l4.219-.594v3.75h3.907l-.438,3.344H51.947v6.063a2.013,2.013,0,0,0,.328,1.313,1.16,1.16,0,0,0,.922.375,3.232,3.232,0,0,0,.844-.109,8.11,8.11,0,0,0,1-.359ZM63.73,16.356a6.686,6.686,0,0,1,4.141,1.078,4.214,4.214,0,0,1,1.391,3.547v9.907h-3.6l-.341-1.094a7.724,7.724,0,0,1-2.3,1.188,8.3,8.3,0,0,1-2.4.344,5.138,5.138,0,0,1-2.321-.5,3.728,3.728,0,0,1-1.552-1.391,3.822,3.822,0,0,1-.549-2.047,4.08,4.08,0,0,1,2.446-3.766,14.943,14.943,0,0,1,6.4-1.453v-.344a4.363,4.363,0,0,0-.173-1.375,1.265,1.265,0,0,0-.612-.734,2.63,2.63,0,0,0-1.224-.234,8.633,8.633,0,0,0-4.486,1.594l-1.631-2.563a14.406,14.406,0,0,1,3.3-1.625A11.159,11.159,0,0,1,63.73,16.356Zm-3.157,10.5a1.314,1.314,0,0,0,.412,1.047,1.782,1.782,0,0,0,1.2.359,6.055,6.055,0,0,0,2.853-.844V24.7a8.284,8.284,0,0,0-3.391.719A1.7,1.7,0,0,0,60.573,26.857ZM73.981,14.73a2.652,2.652,0,0,1-1.344-.359,2.832,2.832,0,0,1-1-.953,2.409,2.409,0,0,1-.375-1.313,2.487,2.487,0,0,1,.375-1.328,2.786,2.786,0,0,1,1-.969,2.652,2.652,0,0,1,1.344-.359,2.8,2.8,0,0,1,1.391.359,2.75,2.75,0,0,1,1.016.969,2.487,2.487,0,0,1,.375,1.328,2.409,2.409,0,0,1-.375,1.313,2.855,2.855,0,0,1-2.406,1.313ZM71.949,30.888V16.918l4.219-.406V30.888ZM87.967,16.356a4.475,4.475,0,0,1,3.262,1.078,4.21,4.21,0,0,1,1.1,3.141V30.888H88.107V21.825a4.179,4.179,0,0,0-.174-1.359,1.231,1.231,0,0,0-.586-.7,2.539,2.539,0,0,0-1.171-.219,6.128,6.128,0,0,0-2.976,1V30.888H78.981V16.918l4.219-.406v1.375a11.686,11.686,0,0,1,2.336-1.125A7.391,7.391,0,0,1,87.967,16.356Zm13.36,0a6.686,6.686,0,0,1,4.141,1.078,4.214,4.214,0,0,1,1.391,3.547v9.907h-3.6l-.341-1.094a7.724,7.724,0,0,1-2.3,1.188,8.3,8.3,0,0,1-2.4.344,5.138,5.138,0,0,1-2.321-.5,3.728,3.728,0,0,1-1.552-1.391,3.822,3.822,0,0,1-.549-2.047,4.08,4.08,0,0,1,2.446-3.766,14.943,14.943,0,0,1,6.4-1.453v-.344a4.363,4.363,0,0,0-.173-1.375,1.265,1.265,0,0,0-.612-.734,2.63,2.63,0,0,0-1.223-.234,8.633,8.633,0,0,0-4.486,1.594l-1.632-2.563a14.406,14.406,0,0,1,3.3-1.625A11.159,11.159,0,0,1,101.327,16.356Zm-3.157,10.5a1.314,1.314,0,0,0,.412,1.047,1.782,1.782,0,0,0,1.2.359,6.055,6.055,0,0,0,2.853-.844V24.7a8.284,8.284,0,0,0-3.391.719A1.7,1.7,0,0,0,98.171,26.857Zm19.872-10.5a5,5,0,0,1,4.246,1.813,8.956,8.956,0,0,1,1.384,5.469,7.9,7.9,0,0,1-1.172,4.532,6.414,6.414,0,0,1-3.016,2.438,11.007,11.007,0,0,1-4.032.719,23.823,23.823,0,0,1-2.719-.188,22.478,22.478,0,0,1-3.219-.625V9.386l4.219-.406v8.657A8.311,8.311,0,0,1,118.043,16.356ZM115.188,28.2a3.978,3.978,0,0,0,3.019-1.141,4.88,4.88,0,0,0,1.09-3.485,8.881,8.881,0,0,0-.253-2.375,2.175,2.175,0,0,0-.838-1.266,2.842,2.842,0,0,0-1.6-.391,6.49,6.49,0,0,0-2.876.844v7.688A7.553,7.553,0,0,0,115.188,28.2Zm12.485-13.47a2.651,2.651,0,0,1-1.344-.359,2.832,2.832,0,0,1-1-.953,2.409,2.409,0,0,1-.375-1.313,2.487,2.487,0,0,1,.375-1.328,2.786,2.786,0,0,1,1-.969,2.651,2.651,0,0,1,1.344-.359,2.8,2.8,0,0,1,1.391.359,2.75,2.75,0,0,1,1.016.969,2.487,2.487,0,0,1,.375,1.328,2.409,2.409,0,0,1-.375,1.313,2.855,2.855,0,0,1-2.406,1.313Zm-2.031,16.158V16.918l4.219-.406V30.888Zm7.063,0V9.386l4.219-.406V30.888Zm16.47-.594a8.25,8.25,0,0,1-4.11,1.031,5.023,5.023,0,0,1-2.133-.453,3.706,3.706,0,0,1-1.6-1.453,4.713,4.713,0,0,1-.623-2.531V20.168h-2.563V16.824h2.563V13.668l4.219-.594v3.75h3.907l-.438,3.344h-3.469v6.063a2.013,2.013,0,0,0,.328,1.313,1.16,1.16,0,0,0,.922.375,3.232,3.232,0,0,0,.844-.109,8.109,8.109,0,0,0,1-.359Zm14.064-13.47v.219l-4.282,13.314a15.67,15.67,0,0,1-1.766,3.907,6.346,6.346,0,0,1-2.344,2.172,7.105,7.105,0,0,1-3.3.7,8.5,8.5,0,0,1-3.125-.563l1.063-2.969a5,5,0,0,0,1.75.313,4.139,4.139,0,0,0,1.344-.2,2.706,2.706,0,0,0,1.156-.875,7.1,7.1,0,0,0,1.063-1.953h-1.125l-5.251-13.845v-.219h4.438l2.5,7.532q.281.844.688,2.531.281-1.25.656-2.469l2.125-7.594Z" transform="translate(54.261 -42.924)" fill="#1c9238"/>
    <path id="Exclusion_1" data-name="Exclusion 1" d="M16.482,32.963A16.481,16.481,0,1,1,32.963,16.482,16.5,16.5,0,0,1,16.482,32.963Zm-6.761-2.1s.383.032,1.019.032c1.858,0,6.427-.293,8.727-3.006,3.374-3.976,3.195-8.84,2.45-12.22a24.388,24.388,0,0,0-2.45-6.447c-.092.059-9.179,5.92-11.587,11.264s1.8,10.326,1.841,10.376Z" transform="translate(15 -40)" fill="#1c9238"/>
  </g>
</svg>
